<svg xmlns="http://www.w3.org/2000/svg" xmlns:xlink="http://www.w3.org/1999/xlink"><symbol id="facebook"><g fill="none"><rect width="34" height="34" rx="3" fill="#373737"/><path d="m20.783 8.211-1.999-.003c-2.246 0-3.697 1.492-3.697 3.8v1.753h-2.01a.315.315 0 0 0-.315.315v2.539c0 .174.141.315.315.315h2.01v6.406c0 .174.14.315.314.315h2.622a.315.315 0 0 0 .315-.315V16.93h2.35c.174 0 .314-.141.314-.315l.001-2.54a.316.316 0 0 0-.314-.314h-2.351v-1.486c0-.713.17-1.076 1.098-1.076h1.347a.315.315 0 0 0 .314-.315V8.526a.315.315 0 0 0-.314-.315Z" fill="#fff"/></g></symbol><symbol id="google-plus"><g fill="none"><rect width="34" height="34" rx="3" fill="#373737"/><path d="M7.223 16.962c-.12-3.202 2.631-6.16 5.775-6.198 1.602-.14 3.16.495 4.373 1.529a27.894 27.894 0 0 1-1.544 1.624c-1.068-.66-2.353-1.165-3.6-.717-2.012.584-3.23 3.006-2.486 5.013.617 2.095 3.117 3.246 5.077 2.365 1.014-.37 1.683-1.325 1.977-2.35-1.163-.024-2.326-.01-3.49-.042-.002-.705-.005-1.408-.002-2.113 1.94-.003 3.881-.01 5.824.008.119 1.729-.131 3.579-1.233 4.966-1.51 1.98-4.297 2.561-6.566 1.784-2.407-.806-4.157-3.278-4.105-5.87ZM22.907 14.294h1.73l.011 1.772c.579.006 1.16.01 1.739.012v1.767l-1.739.009c-.006.593-.008 1.182-.012 1.775-.578-.003-1.157 0-1.732 0-.006-.593-.006-1.182-.012-1.772-.578-.006-1.16-.01-1.739-.012v-1.767c.579-.003 1.158-.006 1.739-.012.003-.59.009-1.182.015-1.772Z" fill="#fff"/></g></symbol><symbol id="inst-ico"><g fill="none"><path fill-rule="evenodd" clip-rule="evenodd" d="M5 0h6a5 5 0 0 1 5 5v6a5 5 0 0 1-5 5H5a5 5 0 0 1-5-5V5a5 5 0 0 1 5-5Zm6 14.5c1.93 0 3.5-1.57 3.5-3.5V5c0-1.93-1.57-3.5-3.5-3.5H5C3.07 1.5 1.5 3.07 1.5 5v6c0 1.93 1.57 3.5 3.5 3.5h6ZM4 8a4 4 0 1 1 8 0 4 4 0 0 1-8 0Zm1.5 0c0 1.378 1.122 2.5 2.5 2.5s2.5-1.122 2.5-2.5c0-1.379-1.122-2.5-2.5-2.5A2.503 2.503 0 0 0 5.5 8Zm7.833-4.333a1 1 0 1 1-2 0 1 1 0 0 1 2 0Z" fill="#fff"/></g></symbol><symbol id="instagram"><g fill="none"><rect width="34" height="34" rx="3" fill="#373737"/><path fill-rule="evenodd" clip-rule="evenodd" d="M13.813 8.5h6.374a5.313 5.313 0 0 1 5.313 5.313v6.374a5.313 5.313 0 0 1-5.313 5.313h-6.375A5.313 5.313 0 0 1 8.5 20.187v-6.375A5.313 5.313 0 0 1 13.813 8.5Zm6.374 15.406a3.723 3.723 0 0 0 3.72-3.718v-6.375a3.723 3.723 0 0 0-3.72-3.72h-6.375a3.723 3.723 0 0 0-3.718 3.72v6.374a3.723 3.723 0 0 0 3.719 3.72h6.374Z" fill="#fff"/><path fill-rule="evenodd" clip-rule="evenodd" d="M12.75 17a4.25 4.25 0 1 1 8.5 0 4.25 4.25 0 0 1-8.5 0Zm1.594 0A2.66 2.66 0 0 0 17 19.656 2.66 2.66 0 0 0 19.656 17 2.66 2.66 0 0 0 17 14.344 2.66 2.66 0 0 0 14.344 17Z" fill="#fff"/><path d="M21.604 13.458a1.063 1.063 0 1 0 0-2.125 1.063 1.063 0 0 0 0 2.125Z" fill="#fff"/></g></symbol><symbol id="logo"><g fill="none"><path d="M1.709 7.248V11H.358V.97h2.961c.635 0 1.185.074 1.652.223.471.145.861.352 1.169.623.308.27.537.597.686.98.154.383.231.81.231 1.281 0 .467-.082.894-.245 1.281a2.738 2.738 0 0 1-.721 1.001c-.313.28-.702.5-1.169.658-.467.154-1.001.231-1.603.231h-1.61Zm0-1.078h1.61c.387 0 .728-.051 1.022-.154.299-.103.548-.245.749-.427.2-.187.352-.408.455-.665a2.26 2.26 0 0 0 .154-.847c0-.64-.198-1.139-.595-1.498-.392-.36-.987-.539-1.785-.539h-1.61v4.13ZM8.58 11V3.91h.715c.135 0 .228.025.28.076.05.051.086.14.105.266l.084 1.106c.242-.495.54-.88.896-1.155.359-.28.779-.42 1.26-.42.196 0 .373.023.532.07.158.042.305.103.44.182l-.16.931c-.033.117-.105.175-.217.175-.066 0-.166-.02-.301-.063a1.809 1.809 0 0 0-.567-.07c-.434 0-.798.126-1.092.378-.29.252-.532.618-.728 1.1V11H8.58ZM17.034 3.797c.425 0 .817.072 1.176.217.36.14.67.345.931.616.261.266.464.597.61.994.148.392.223.84.223 1.344 0 .196-.02.327-.063.392-.042.065-.121.098-.238.098h-4.718c.01.448.07.838.182 1.17.112.33.266.608.462.832.196.22.43.385.7.497.27.107.574.161.91.161.313 0 .581-.035.805-.105a4.038 4.038 0 0 0 .994-.469.549.549 0 0 1 .287-.112c.103 0 .182.04.238.12l.35.454c-.154.187-.338.35-.553.49a3.531 3.531 0 0 1-.693.336 4.086 4.086 0 0 1-.756.196 4.41 4.41 0 0 1-.777.07 3.68 3.68 0 0 1-1.358-.245 3.075 3.075 0 0 1-1.07-.728 3.404 3.404 0 0 1-.7-1.19c-.169-.471-.253-1.013-.253-1.624 0-.495.075-.957.224-1.386.154-.43.373-.8.658-1.113a2.952 2.952 0 0 1 1.043-.742c.41-.182.873-.273 1.386-.273Zm.028.917c-.602 0-1.076.175-1.42.525-.346.345-.56.826-.645 1.442h3.857c0-.29-.04-.553-.119-.79a1.731 1.731 0 0 0-.35-.624 1.507 1.507 0 0 0-.567-.406 1.837 1.837 0 0 0-.756-.147ZM21.569 11V3.91h.742c.177 0 .29.085.336.258l.09.728c.262-.322.554-.586.876-.79a2.085 2.085 0 0 1 1.134-.309c.48 0 .868.133 1.162.4.299.265.513.624.644 1.077.098-.257.226-.478.385-.665a2.317 2.317 0 0 1 1.183-.728c.229-.056.46-.084.693-.084.373 0 .704.06.994.182.294.117.541.29.742.518.205.229.361.511.469.847.107.331.16.712.16 1.141V11h-1.245V6.485c0-.555-.122-.975-.364-1.26-.243-.29-.595-.434-1.057-.434-.206 0-.402.037-.588.112-.182.07-.343.175-.483.315-.14.14-.252.317-.336.532-.08.21-.12.455-.12.735V11h-1.245V6.485c0-.57-.114-.994-.343-1.274-.229-.28-.563-.42-1.001-.42-.308 0-.595.084-.861.252a2.774 2.774 0 0 0-.721.672V11h-1.246ZM34.453 3.91V11h-1.246V3.91h1.246Zm.28-2.227a.784.784 0 0 1-.077.343.95.95 0 0 1-.476.47.85.85 0 0 1-.343.07.851.851 0 0 1-.343-.07 1.022 1.022 0 0 1-.28-.19 1.022 1.022 0 0 1-.19-.28.852.852 0 0 1-.07-.343c0-.121.024-.236.07-.343a.88.88 0 0 1 .19-.287.851.851 0 0 1 .623-.266.85.85 0 0 1 .623.266c.084.08.15.175.196.287a.784.784 0 0 1 .077.343ZM37.727 3.91V8.43c0 .537.124.952.371 1.246.247.294.62.441 1.12.441.364 0 .707-.086 1.029-.259.322-.173.618-.413.889-.72v-5.23h1.246V11h-.742c-.177 0-.29-.086-.336-.259l-.098-.763c-.308.34-.653.616-1.036.826a2.74 2.74 0 0 1-1.316.308c-.387 0-.73-.063-1.029-.189a2.076 2.076 0 0 1-.742-.546 2.343 2.343 0 0 1-.455-.847 3.865 3.865 0 0 1-.147-1.099V3.91h1.246ZM44.428 11V3.91h.742c.178 0 .29.085.336.258l.091.728c.262-.322.553-.586.875-.79a2.085 2.085 0 0 1 1.134-.309c.48 0 .868.133 1.162.4.299.265.514.624.644 1.077.098-.257.227-.478.385-.665a2.317 2.317 0 0 1 1.183-.728c.229-.056.46-.084.693-.084.374 0 .705.06.994.182.294.117.542.29.742.518.206.229.362.511.47.847.107.331.16.712.16 1.141V11h-1.246V6.485c0-.555-.121-.975-.364-1.26-.242-.29-.595-.434-1.057-.434-.205 0-.401.037-.588.112-.182.07-.343.175-.483.315-.14.14-.252.317-.336.532-.08.21-.119.455-.119.735V11H48.6V6.485c0-.57-.114-.994-.343-1.274-.228-.28-.562-.42-1-.42-.309 0-.596.084-.862.252a2.774 2.774 0 0 0-.72.672V11h-1.247Z" fill="#fff"/></g></symbol><symbol id="pinterest"><g fill="none"><rect width="34" height="34" rx="3" fill="#373737"/><path d="M21.809 9.8c-1.053-1.026-2.511-1.592-4.104-1.592-2.434 0-3.931 1.013-4.759 1.863-1.02 1.047-1.604 2.438-1.604 3.815 0 1.73.713 3.057 1.906 3.55.08.034.16.05.24.05.251 0 .45-.166.52-.435.04-.154.133-.533.174-.698.087-.325.016-.482-.173-.709-.345-.414-.506-.904-.506-1.542 0-1.895 1.39-3.91 3.966-3.91 2.044 0 3.313 1.18 3.313 3.079 0 1.198-.254 2.307-.716 3.124-.32.567-.884 1.244-1.75 1.244-.375 0-.711-.156-.924-.429-.2-.257-.266-.59-.186-.936.091-.392.216-.8.336-1.195.22-.721.426-1.402.426-1.946 0-.93-.562-1.554-1.4-1.554-1.064 0-1.898 1.098-1.898 2.5 0 .686.18 1.2.261 1.398-.134.577-.93 4.006-1.082 4.653-.087.377-.614 3.359.258 3.597.979.267 1.854-2.637 1.943-2.965.072-.267.325-1.276.48-1.897.472.463 1.233.775 1.974.775 1.396 0 2.652-.638 3.535-1.796.857-1.123 1.33-2.689 1.33-4.408 0-1.344-.569-2.67-1.56-3.636Z" fill="#fff"/></g></symbol><symbol id="search"><g fill="none"><path fill-rule="evenodd" clip-rule="evenodd" d="m11.813 11.276 3.944 4.208a.913.913 0 0 1-.024 1.266.857.857 0 0 1-1.234-.024l-3.974-4.24a6.505 6.505 0 0 1-3.834 1.241C3.001 13.727 0 10.648 0 6.864 0 3.079 3.002 0 6.691 0c3.69 0 6.691 3.08 6.691 6.864 0 1.62-.555 3.176-1.57 4.412Zm-.176-4.412c0-2.798-2.219-5.073-4.946-5.073S1.746 4.066 1.746 6.864c0 2.797 2.218 5.073 4.945 5.073 2.727 0 4.946-2.276 4.946-5.073Z" fill="#929EAF"/></g></symbol><symbol id="twitter"><g fill="none"><rect width="34" height="34" rx="3" fill="#373737"/><path d="M24.792 12.134a6.346 6.346 0 0 1-1.837.507 3.224 3.224 0 0 0 1.406-1.78 6.374 6.374 0 0 1-2.03.78 3.184 3.184 0 0 0-2.334-1.016c-1.765 0-3.197 1.441-3.197 3.219 0 .252.028.498.083.733a9.055 9.055 0 0 1-6.59-3.363 3.222 3.222 0 0 0-.433 1.618c0 1.117.565 2.102 1.422 2.68a3.16 3.16 0 0 1-1.448-.404v.041c0 1.56 1.103 2.86 2.565 3.156a3.167 3.167 0 0 1-1.444.056 3.203 3.203 0 0 0 2.987 2.235 6.387 6.387 0 0 1-4.734 1.333 9 9 0 0 0 4.9 1.446c5.881 0 9.097-4.905 9.097-9.158 0-.14-.003-.279-.009-.417a6.51 6.51 0 0 0 1.596-1.666Z" fill="#fff"/></g></symbol></svg>